<?xml version="1.0" encoding="utf-8"?>
<!-- Generator: Adobe Illustrator 23.0.3, SVG Export Plug-In . SVG Version: 6.00 Build 0)  -->
<svg version="1.1" xmlns="http://www.w3.org/2000/svg" xmlns:xlink="http://www.w3.org/1999/xlink" x="0px" y="0px"
	 viewBox="0 0 494.47 167.29" style="enable-background:new 0 0 494.47 167.29;" xml:space="preserve">
<style type="text/css">
	.st0{fill:#4DA747;}
	.st1{fill-rule:evenodd;clip-rule:evenodd;}
</style>
<g id="Layer_1">
	<g>
		<g>
			<path d="M472.88,40.26v14.2h-7.18c-2.98,0-5.77,0.56-8.38,1.68c-2.61,1.11-4.9,2.66-6.87,4.63c-1.97,1.97-3.51,4.25-4.63,6.86
				c-1.12,2.6-1.67,5.4-1.67,8.38v35.91h-14.37V76.01c0-5,0.94-9.65,2.8-13.96c1.86-4.31,4.44-8.08,7.74-11.33
				c3.3-3.24,7.13-5.8,11.49-7.66c4.36-1.86,9-2.79,13.89-2.79H472.88z M379.35,61c-4.26,4.26-6.39,9.37-6.39,15.32
				c0,3.3,0.75,6.44,2.24,9.41l5.83-5.82l8.29-8.3c2.93-2.93,5.75-5.72,8.46-8.38c2.72-2.66,4.82-4.73,6.31-6.23
				c-4.04-2.02-8.32-2.71-12.85-2.07C386.72,55.58,382.75,57.6,379.35,61 M414.94,86.71L425,96.76l-4.95,4.95
				c-3.4,3.4-7.29,6.01-11.65,7.82c-4.36,1.82-8.94,2.72-13.73,2.72c-4.79,0-9.36-0.9-13.72-2.72c-4.36-1.81-8.25-4.42-11.66-7.82
				c-3.5-3.52-6.11-7.48-7.82-11.89c-1.7-4.42-2.55-8.91-2.55-13.49s0.85-9.05,2.55-13.41c1.7-4.36,4.31-8.31,7.82-11.81
				c3.52-3.52,7.48-6.15,11.89-7.9c4.42-1.76,8.92-2.64,13.49-2.64c4.58,0,9.08,0.87,13.49,2.64c4.42,1.75,8.38,4.38,11.89,7.9
				l4.95,4.94L385.26,95.8c4.05,2.03,8.32,2.69,12.85,2c4.52-0.7,8.49-2.74,11.89-6.15L414.94,86.71z M347.27,40.26v14.2h-43.25
				c-2.03,0-3.73,0.69-5.11,2.08c-1.39,1.38-2.07,3.09-2.07,5.11s0.68,3.76,2.07,5.19c1.39,1.44,3.09,2.15,5.11,2.15h28.72
				c2.98,0,5.77,0.56,8.38,1.68c2.6,1.11,4.9,2.64,6.86,4.54c1.97,1.92,3.52,4.18,4.63,6.79c1.12,2.6,1.67,5.4,1.67,8.38
				c0,2.98-0.56,5.77-1.67,8.38c-1.11,2.6-2.66,4.9-4.63,6.86c-1.96,1.97-4.26,3.52-6.86,4.63c-2.61,1.11-5.4,1.67-8.38,1.67h-43.09
				v-14.2h43.09c2.13,0,3.88-0.69,5.27-2.07c1.38-1.39,2.07-3.14,2.07-5.27c0-2.02-0.69-3.73-2.07-5.11
				c-1.39-1.38-3.14-2.08-5.27-2.08h-28.72c-2.98,0-5.78-0.56-8.39-1.67c-2.6-1.11-4.87-2.66-6.78-4.63
				c-1.92-1.96-3.43-4.26-4.56-6.86c-1.11-2.61-1.67-5.4-1.67-8.38c0-2.98,0.56-5.77,1.67-8.38c1.12-2.61,2.64-4.87,4.56-6.79
				c1.91-1.91,4.17-3.43,6.78-4.55c2.61-1.11,5.4-1.67,8.39-1.67H347.27z M264.43,97.72V76.01c0-2.97-0.56-5.77-1.68-8.38
				c-1.11-2.61-2.66-4.89-4.63-6.86c-1.96-1.97-4.25-3.52-6.86-4.63c-2.6-1.11-5.4-1.68-8.38-1.68c-2.97,0-5.8,0.56-8.46,1.68
				c-2.66,1.11-4.97,2.66-6.94,4.63c-1.97,1.97-3.52,4.25-4.63,6.86c-1.12,2.6-1.68,5.4-1.68,8.38c0,2.98,0.56,5.8,1.68,8.46
				c1.11,2.66,2.66,4.97,4.63,6.94c1.96,1.97,4.28,3.52,6.94,4.62c2.66,1.12,5.49,1.68,8.46,1.68H264.43z M242.88,40.26
				c5,0,9.66,0.93,13.97,2.79c4.31,1.86,8.09,4.42,11.33,7.66c3.24,3.25,5.8,7.03,7.66,11.33c1.86,4.31,2.79,8.96,2.79,13.96v35.91
				h-35.76c-4.89,0-9.52-0.92-13.88-2.79c-4.36-1.86-8.19-4.44-11.5-7.75c-3.29-3.29-5.87-7.13-7.74-11.49
				c-1.86-4.36-2.79-9-2.79-13.89c0-5,0.93-9.65,2.79-13.96c1.86-4.31,4.44-8.08,7.74-11.33c3.31-3.24,7.13-5.8,11.5-7.66
				C233.36,41.19,237.99,40.26,242.88,40.26 M187.66,11.53h14.2v100.4h-14.2V11.53z"/>
			<path class="st0" d="M165.81,98.27V76.91c0-2.93-0.54-5.68-1.65-8.25c-1.1-2.57-2.62-4.82-4.55-6.76
				c-1.94-1.93-4.19-3.45-6.76-4.55c-2.57-1.1-5.32-1.65-8.24-1.65c-2.93,0-5.71,0.55-8.33,1.65c-2.62,1.1-4.89,2.62-6.83,4.55
				c-1.94,1.94-3.45,4.19-4.55,6.76c-1.1,2.57-1.65,5.32-1.65,8.25c0,2.93,0.55,5.7,1.65,8.32c1.1,2.62,2.62,4.9,4.55,6.84
				c1.94,1.94,4.21,3.45,6.83,4.55c2.62,1.1,5.4,1.65,8.33,1.65H165.81z M145.83,41.72c4.92,0,8.28,0.91,12.51,2.74
				c4.24,1.84,7.96,4.35,11.16,7.55c3.19,3.19,5.71,6.91,7.55,11.15c1.83,4.24,2.74,8.82,2.74,13.75v35.34h-33.96
				c-4.81,0-9.38-0.92-13.66-2.75c-4.3-1.83-8.07-4.37-11.31-7.62c-3.24-3.24-5.79-7.01-7.62-11.3c-1.83-4.3-2.74-8.86-2.74-13.66
				c0-4.93,0.91-9.5,2.74-13.75c1.83-4.24,4.38-7.96,7.62-11.15c3.24-3.19,7.02-5.71,11.31-7.55
				C136.46,42.63,141.02,41.72,145.83,41.72 M91.57,41.72h12.63v70.52H91.57V41.72z M85.09,41.42l-35.96,69.17L13.3,41.4l13.78,0.16
				c1.46,2.83,4.31,7.78,6.2,11.39c1.88,3.62,3.77,7.28,5.66,11c1.88,3.72,3.74,7.3,5.57,10.76c1.83,3.46,3.38,6.44,4.63,8.95
				c1.57-3.03,3.38-6.51,5.42-10.44c2.04-3.93,4.05-7.83,6.04-11.7c1.99-3.88,3.82-7.46,5.5-10.76c1.68-3.3,3.81-7.68,4.76-9.36
				L85.09,41.42z"/>
			<g>
				<rect x="14.3" y="120.74" class="st1" width="457.92" height="1.32"/>
				<path class="st1" d="M477.34,116.94c2.83,0,5.13,2.29,5.13,5.13c0,2.83-2.29,5.11-5.13,5.11c-2.83,0-5.12-2.29-5.12-5.11
					C472.22,119.23,474.51,116.94,477.34,116.94"/>
			</g>
		</g>
		<g>
			<path d="M92.55,141.53h5.2c1.17,0,2.24,0.19,3.22,0.57c0.98,0.38,1.82,0.9,2.53,1.57c0.71,0.67,1.25,1.46,1.64,2.36
				c0.39,0.91,0.58,1.89,0.58,2.94v0.04c0,1.06-0.19,2.04-0.58,2.95c-0.39,0.91-0.93,1.71-1.64,2.38c-0.71,0.67-1.55,1.2-2.53,1.58
				c-0.98,0.39-2.05,0.58-3.22,0.58h-5.2V141.53z M97.75,154.95c0.94,0,1.8-0.15,2.57-0.45c0.77-0.3,1.42-0.71,1.96-1.24
				c0.53-0.53,0.95-1.15,1.24-1.87c0.29-0.72,0.44-1.49,0.44-2.32v-0.04c0-0.83-0.15-1.6-0.44-2.32c-0.29-0.72-0.71-1.35-1.24-1.88
				c-0.54-0.53-1.19-0.96-1.96-1.26c-0.77-0.31-1.63-0.46-2.57-0.46h-3.51v11.86H97.75z"/>
			<path d="M113.43,141.53h10.83v1.52h-9.14v5.16h8.18v1.52h-8.18v5.26h9.25v1.52h-10.94V141.53z"/>
			<path d="M131.92,141.53h5.61c0.84,0,1.61,0.11,2.3,0.33c0.69,0.22,1.28,0.54,1.78,0.94c0.49,0.41,0.87,0.9,1.13,1.49
				c0.26,0.59,0.4,1.25,0.4,1.99v0.04c0,0.81-0.16,1.52-0.47,2.13c-0.31,0.61-0.74,1.12-1.27,1.53c-0.54,0.41-1.16,0.73-1.87,0.93
				c-0.71,0.21-1.47,0.31-2.27,0.31h-3.64v5.29h-1.69V141.53z M137.33,149.71c0.62,0,1.18-0.08,1.68-0.24
				c0.51-0.16,0.94-0.38,1.31-0.68c0.36-0.29,0.64-0.64,0.84-1.04c0.19-0.4,0.29-0.85,0.29-1.35v-0.04c0-1.07-0.37-1.89-1.11-2.44
				c-0.74-0.55-1.71-0.83-2.93-0.83h-3.8v6.61H137.33z"/>
			<path d="M150.52,141.53h1.69v14.98h-1.69V141.53z"/>
			<path d="M160.75,141.53h1.69v13.42h8.43v1.56h-10.12V141.53z"/>
			<path d="M183.7,141.42h1.58l6.83,15.09h-1.82l-1.76-3.96h-8.15l-1.78,3.96h-1.73L183.7,141.42z M187.87,151.03l-3.4-7.64
				l-3.42,7.64H187.87z"/>
			<path d="M203.39,159.1l1.65-2.4c-0.94-0.13-1.81-0.41-2.61-0.84c-0.8-0.44-1.48-0.99-2.05-1.67c-0.57-0.68-1.02-1.45-1.34-2.33
				c-0.32-0.88-0.48-1.81-0.48-2.79v-0.04c0-1.06,0.19-2.06,0.57-3c0.38-0.94,0.9-1.76,1.57-2.47c0.67-0.71,1.47-1.26,2.4-1.67
				c0.93-0.41,1.94-0.61,3.04-0.61c0.68,0,1.3,0.06,1.85,0.17c0.55,0.11,1.06,0.27,1.53,0.48c0.47,0.21,0.91,0.46,1.31,0.75
				c0.4,0.29,0.78,0.62,1.16,0.97l-1.16,1.24c-0.64-0.6-1.33-1.09-2.07-1.48c-0.73-0.39-1.62-0.58-2.64-0.58
				c-0.83,0-1.59,0.16-2.3,0.47c-0.71,0.31-1.32,0.75-1.84,1.31c-0.52,0.56-0.93,1.21-1.22,1.96c-0.29,0.75-0.44,1.55-0.44,2.41
				v0.04c0,0.87,0.15,1.68,0.44,2.43c0.29,0.75,0.7,1.4,1.22,1.96c0.52,0.56,1.13,0.99,1.84,1.32c0.71,0.32,1.47,0.48,2.3,0.48
				c1.03,0,1.91-0.19,2.65-0.57c0.74-0.38,1.47-0.91,2.18-1.59l1.11,1.09c-0.37,0.39-0.76,0.73-1.16,1.04
				c-0.4,0.31-0.83,0.57-1.28,0.8c-0.46,0.23-0.95,0.41-1.48,0.55c-0.53,0.14-1.11,0.22-1.73,0.25l-1.41,3.06L203.39,159.1z"/>
			<path d="M224.7,141.42h1.58l6.83,15.09h-1.82l-1.76-3.96h-8.15l-1.78,3.96h-1.73L224.7,141.42z M221.98,140.12
				c0.21-0.81,0.48-1.39,0.79-1.73s0.73-0.51,1.24-0.51c0.24,0,0.49,0.05,0.75,0.14c0.26,0.09,0.51,0.19,0.77,0.3
				c0.26,0.11,0.5,0.2,0.73,0.29c0.23,0.09,0.44,0.13,0.62,0.13c0.29,0,0.5-0.08,0.65-0.24c0.15-0.16,0.3-0.43,0.46-0.81l1.01,0.28
				c-0.21,0.81-0.48,1.39-0.79,1.73c-0.31,0.34-0.73,0.51-1.24,0.51c-0.24,0-0.49-0.04-0.75-0.13c-0.26-0.09-0.51-0.18-0.77-0.29
				c-0.26-0.11-0.5-0.21-0.73-0.3c-0.23-0.09-0.44-0.14-0.62-0.14c-0.29,0-0.5,0.08-0.65,0.24c-0.15,0.16-0.3,0.43-0.46,0.81
				L221.98,140.12z M228.88,151.03l-3.4-7.64l-3.42,7.64H228.88z"/>
			<path d="M247.18,156.77c-1.14,0-2.18-0.21-3.11-0.62c-0.94-0.41-1.74-0.97-2.41-1.68c-0.67-0.71-1.19-1.53-1.55-2.46
				c-0.36-0.93-0.55-1.92-0.55-2.94v-0.04c0-1.03,0.19-2.01,0.56-2.95c0.37-0.94,0.89-1.77,1.56-2.47c0.67-0.71,1.48-1.27,2.42-1.69
				c0.94-0.42,1.98-0.63,3.12-0.63c1.14,0,2.18,0.21,3.11,0.62c0.94,0.41,1.74,0.97,2.41,1.68c0.67,0.71,1.19,1.53,1.55,2.46
				c0.36,0.93,0.55,1.92,0.55,2.94c0.01,0.01,0.01,0.03,0,0.04c0,1.03-0.19,2.01-0.56,2.95s-0.89,1.77-1.56,2.47
				c-0.67,0.71-1.48,1.27-2.42,1.69C249.36,156.56,248.32,156.77,247.18,156.77z M247.22,155.21c0.86,0,1.64-0.16,2.37-0.48
				c0.72-0.32,1.34-0.76,1.85-1.32c0.51-0.56,0.92-1.21,1.21-1.95c0.29-0.74,0.44-1.54,0.44-2.4v-0.04c0-0.86-0.15-1.66-0.44-2.41
				c-0.29-0.75-0.7-1.4-1.23-1.96c-0.53-0.56-1.15-1-1.87-1.33c-0.72-0.33-1.51-0.49-2.36-0.49c-0.86,0-1.65,0.16-2.37,0.48
				c-0.72,0.32-1.34,0.76-1.85,1.32c-0.51,0.56-0.92,1.21-1.21,1.95c-0.29,0.74-0.44,1.54-0.44,2.4v0.04c0,0.86,0.15,1.66,0.44,2.41
				c0.29,0.75,0.7,1.4,1.23,1.96c0.53,0.56,1.15,1,1.87,1.33C245.57,155.04,246.36,155.21,247.22,155.21z"/>
			<path d="M278.68,141.42h1.58l6.83,15.09h-1.82l-1.76-3.96h-8.15l-1.78,3.96h-1.73L278.68,141.42z M282.85,151.03l-3.4-7.64
				l-3.42,7.64H282.85z"/>
			<path d="M304.77,141.53h1.69v13.42h8.43v1.56h-10.12V141.53z"/>
			<path d="M327.71,141.42h1.58l6.83,15.09h-1.82l-1.76-3.96h-8.15l-1.78,3.96h-1.73L327.71,141.42z M331.88,151.03l-3.4-7.64
				l-3.42,7.64H331.88z"/>
			<path d="M348.38,156.72c-1.2,0-2.29-0.2-3.28-0.59c-0.99-0.39-1.94-0.99-2.84-1.81l1.05-1.24c0.78,0.71,1.58,1.24,2.38,1.59
				c0.8,0.35,1.72,0.52,2.76,0.52c1.01,0,1.82-0.24,2.43-0.72c0.61-0.48,0.91-1.09,0.91-1.83v-0.04c0-0.34-0.06-0.65-0.17-0.93
				c-0.11-0.28-0.31-0.53-0.6-0.76c-0.29-0.23-0.68-0.43-1.19-0.62s-1.15-0.36-1.94-0.54c-0.86-0.19-1.61-0.4-2.24-0.64
				c-0.64-0.24-1.16-0.54-1.58-0.88c-0.41-0.34-0.72-0.74-0.92-1.2c-0.2-0.46-0.3-0.99-0.3-1.61v-0.04c0-0.58,0.12-1.13,0.36-1.63
				c0.24-0.5,0.58-0.93,1.03-1.29s0.96-0.65,1.56-0.86c0.6-0.21,1.25-0.31,1.97-0.31c1.1,0,2.06,0.15,2.88,0.46
				c0.82,0.31,1.62,0.77,2.39,1.38l-0.98,1.31c-0.7-0.57-1.4-0.98-2.11-1.24c-0.71-0.26-1.45-0.39-2.22-0.39
				c-0.98,0-1.76,0.23-2.33,0.7c-0.57,0.46-0.86,1.04-0.86,1.72v0.04c0,0.36,0.06,0.67,0.17,0.95c0.11,0.28,0.32,0.53,0.62,0.77
				c0.3,0.24,0.71,0.45,1.24,0.64c0.53,0.19,1.21,0.37,2.03,0.55c1.67,0.37,2.9,0.88,3.69,1.54c0.79,0.66,1.19,1.56,1.19,2.7v0.04
				c0,0.64-0.13,1.22-0.38,1.74c-0.25,0.52-0.6,0.97-1.05,1.34s-0.98,0.66-1.61,0.86C349.81,156.62,349.12,156.72,348.38,156.72z"/>
			<path d="M361.08,141.53h10.83v1.52h-9.14v5.16h8.18v1.52h-8.18v5.26h9.25v1.52h-10.94V141.53z"/>
			<path d="M379.57,141.53h6.44c0.93,0,1.75,0.13,2.47,0.4c0.72,0.26,1.32,0.63,1.79,1.1c0.37,0.37,0.66,0.81,0.86,1.31
				s0.3,1.05,0.3,1.65v0.04c0,0.63-0.1,1.19-0.3,1.68c-0.2,0.49-0.48,0.92-0.85,1.28c-0.36,0.36-0.8,0.66-1.29,0.9
				c-0.5,0.24-1.04,0.4-1.63,0.5l4.6,6.12h-2.08l-4.35-5.82h-0.04h-4.24v5.82h-1.69V141.53z M385.87,149.17
				c0.56,0,1.07-0.07,1.55-0.21c0.47-0.14,0.88-0.35,1.22-0.61c0.34-0.26,0.61-0.58,0.8-0.96s0.29-0.81,0.29-1.29v-0.04
				c0-0.93-0.34-1.65-1.01-2.17c-0.67-0.52-1.62-0.78-2.83-0.78h-4.63v6.08H385.87z"/>
		</g>
	</g>
</g>
<g id="Layer_2">
</g>
</svg>
